<?xml version="1.0" standalone="no"?>
<!DOCTYPE svg PUBLIC "-//W3C//DTD SVG 20010904//EN"
 "http://www.w3.org/TR/2001/REC-SVG-20010904/DTD/svg10.dtd">
<svg version="1.0" xmlns="http://www.w3.org/2000/svg"
 width="700.000000pt" height="700.000000pt" viewBox="0 0 700.000000 700.000000"
 preserveAspectRatio="xMidYMid meet">
<metadata>
Created by potrace 1.14, written by Peter Selinger 2001-2017
</metadata>
<g transform="translate(0.000000,700.000000) scale(0.100000,-0.100000)"
fill="#000000" stroke="none">
<path d="M5677 6644 c-1 -1 -45 -4 -98 -8 -53 -4 -107 -9 -120 -11 -21 -3 -87
-13 -219 -31 -198 -29 -441 -128 -611 -250 -82 -60 -263 -239 -282 -281 -6
-13 -14 -23 -19 -23 -4 0 -8 -4 -8 -9 0 -6 -13 -29 -29 -53 -52 -78 -135 -258
-167 -363 -84 -278 -104 -586 -42 -652 29 -31 102 -65 147 -68 70 -4 100 14
174 107 l70 87 26 -20 c14 -11 37 -27 51 -37 24 -16 167 -117 517 -366 141
-100 153 -111 158 -145 10 -66 47 -170 75 -213 79 -122 149 -145 298 -97 20 6
42 15 47 19 9 7 43 14 115 26 55 9 70 15 90 36 37 40 22 112 -41 185 -44 52
-61 56 -137 35 -42 -12 -75 -16 -88 -11 -24 8 -68 64 -62 78 2 5 28 36 58 68
30 33 96 104 145 158 50 55 103 113 119 130 15 16 60 66 100 109 39 44 82 92
96 106 14 15 61 66 105 115 44 49 94 104 111 123 l31 34 13 -53 c29 -128 28
-127 66 -139 93 -31 221 18 261 100 106 216 128 555 52 805 -69 229 -215 382
-424 446 -22 6 -51 15 -65 20 -29 10 -130 28 -197 35 -44 5 -311 12 -316 8z
m557 -368 c91 -21 203 -93 271 -177 50 -60 135 -249 135 -299 0 -7 -47 33
-104 87 -118 113 -214 182 -301 218 -52 21 -73 24 -155 21 -79 -2 -109 -8
-182 -37 -49 -18 -88 -36 -88 -40 0 -3 26 -22 58 -42 78 -49 162 -127 227
-211 50 -66 125 -189 125 -205 0 -4 -11 -20 -24 -37 -24 -28 -186 -227 -356
-434 -47 -58 -117 -143 -155 -190 -38 -47 -71 -87 -75 -90 -3 -3 -21 -25 -40
-50 -51 -66 -82 -100 -92 -100 -14 0 -9 51 7 66 16 16 19 52 9 102 -10 52 -90
69 -150 33 -37 -22 -46 -55 -31 -111 9 -33 8 -42 -8 -60 -10 -11 -22 -17 -26
-13 -5 5 -33 67 -63 140 -30 72 -61 146 -69 165 -8 18 -31 71 -50 118 -20 47
-72 172 -116 277 -45 106 -81 195 -81 199 0 3 55 62 123 131 224 229 405 358
626 447 110 45 246 85 310 93 25 3 48 7 50 9 6 5 192 -3 225 -10z m-1404 -888
c51 -101 188 -365 281 -545 38 -73 69 -135 69 -138 0 -3 -8 2 -17 10 -10 8
-47 37 -83 65 -36 28 -74 59 -85 68 -11 9 -56 45 -100 80 -44 34 -88 69 -98
78 -10 8 -64 51 -120 95 -56 45 -106 85 -111 89 -7 7 109 161 181 240 13 14
23 28 23 32 0 26 23 -3 60 -74z"/>
<path d="M3398 4945 c-2 -2 -75 -6 -163 -9 -88 -4 -176 -8 -195 -10 -19 -2
-71 -6 -115 -10 -44 -4 -91 -9 -105 -11 -14 -3 -47 -7 -75 -10 -27 -3 -61 -8
-75 -10 -34 -6 -77 -12 -130 -19 -25 -3 -56 -8 -70 -11 -14 -3 -52 -10 -85
-16 -221 -39 -474 -122 -680 -224 -129 -63 -315 -175 -380 -227 -318 -259
-520 -505 -689 -838 -223 -441 -347 -998 -314 -1410 12 -161 34 -198 148 -259
167 -89 324 -68 419 56 19 24 39 42 45 40 7 -3 97 -65 201 -139 105 -74 395
-279 645 -456 557 -395 515 -362 518 -403 8 -109 59 -276 119 -390 68 -132
178 -231 270 -245 84 -12 222 15 368 74 28 11 93 27 145 36 181 31 207 42 236
98 42 81 3 206 -99 314 -83 90 -104 94 -232 54 -108 -35 -139 -37 -182 -10
-32 19 -102 105 -103 125 0 6 22 33 48 61 26 27 88 95 137 149 50 55 117 129
150 165 33 36 78 85 101 110 22 25 67 74 100 110 33 36 77 85 99 109 22 24 49
54 60 65 11 12 63 69 115 126 52 58 114 125 136 150 23 25 56 61 74 80 17 19
48 53 69 75 20 22 109 119 196 215 87 96 177 194 199 218 l41 43 8 -28 c4 -15
18 -76 31 -134 13 -59 26 -111 30 -117 3 -6 29 -18 56 -27 58 -19 169 -18 249
2 57 15 143 65 181 105 57 61 104 198 116 342 3 34 11 86 19 116 12 49 25 121
41 230 10 66 11 375 3 450 -28 233 -56 354 -119 512 -72 179 -136 282 -242
391 -185 188 -492 318 -858 363 -30 3 -64 8 -75 10 -11 2 -94 7 -185 10 -91 3
-173 7 -182 8 -9 2 -18 3 -20 1z m744 -649 c49 -7 170 -43 233 -69 114 -47
231 -142 324 -262 56 -72 57 -75 120 -200 53 -105 141 -357 117 -335 -3 3 -47
46 -98 95 -51 50 -127 120 -168 155 -41 36 -77 67 -80 70 -22 22 -132 99 -200
140 -143 86 -252 119 -388 118 -141 -2 -227 -22 -424 -100 -98 -39 -129 -58
-96 -58 18 0 123 -66 208 -131 138 -106 269 -244 367 -389 58 -85 174 -291
171 -302 -3 -6 -1006 -1235 -1367 -1673 -113 -138 -113 -138 -125 -65 -4 29
-1 38 25 60 34 28 38 52 25 150 -12 95 -52 130 -148 130 -64 0 -149 -36 -174
-74 -21 -34 -25 -91 -8 -136 29 -75 27 -91 -18 -133 -22 -21 -44 -35 -48 -30
-4 4 -18 33 -30 63 -12 30 -35 84 -50 120 -16 36 -92 218 -170 405 -78 187
-148 354 -155 370 -7 17 -36 84 -63 150 -28 66 -91 218 -142 338 -50 121 -90
222 -88 226 2 5 32 41 68 81 36 40 87 98 115 129 157 177 486 489 634 601 18
14 45 35 59 46 65 52 267 177 372 231 271 139 612 252 845 279 28 4 51 8 53 9
5 5 264 -3 304 -9z m-2614 -1696 c47 -91 183 -354 322 -625 57 -110 131 -254
165 -320 98 -188 159 -308 172 -336 8 -19 -73 40 -260 190 -150 119 -303 241
-342 271 -38 30 -72 57 -75 60 -3 3 -98 79 -212 170 -115 90 -208 167 -208
173 0 14 389 501 395 495 2 -2 21 -37 43 -78z"/>
</g>
</svg>
